<svg xmlns="http://www.w3.org/2000/svg" width="45" height="42" fill="none"><path fill="#AFB1B8" d="M7.406 41.101c.016 0 .032.004.046.01a.122.122 0 0 1 .039.024l.218.208c-.17.169-.379.304-.614.396-.275.1-.571.148-.87.142-.28.005-.558-.04-.817-.133a1.793 1.793 0 0 1-.617-.374 1.674 1.674 0 0 1-.398-.578 1.927 1.927 0 0 1-.139-.742 1.724 1.724 0 0 1 .573-1.322c.186-.163.409-.291.654-.377.269-.09.555-.135.843-.132.267-.006.533.035.782.12.216.082.414.195.586.335l-.182.222a.178.178 0 0 1-.047.04.124.124 0 0 1-.073.017.177.177 0 0 1-.08-.023l-.097-.06-.137-.076a1.552 1.552 0 0 0-.43-.132 1.912 1.912 0 0 0-.325-.024 1.764 1.764 0 0 0-.605.1c-.18.063-.341.158-.475.28-.136.128-.24.28-.308.445a1.5 1.5 0 0 0-.112.587c-.003.203.035.405.112.597a1.3 1.3 0 0 0 .303.443c.125.12.28.215.453.275.177.064.369.096.561.095.111.001.223-.005.333-.02a1.314 1.314 0 0 0 .72-.305.171.171 0 0 1 .103-.038ZM13.704 40.054a1.81 1.81 0 0 1-.147.736 1.594 1.594 0 0 1-.41.572 1.889 1.889 0 0 1-.645.376 2.655 2.655 0 0 1-1.658 0 1.91 1.91 0 0 1-.64-.377 1.678 1.678 0 0 1-.415-.578 1.922 1.922 0 0 1 0-1.476c.093-.215.234-.412.415-.58.182-.158.4-.281.64-.362a2.61 2.61 0 0 1 1.658 0c.242.085.461.213.643.376.18.165.32.359.412.571.101.237.151.489.147.742Zm-.572 0a1.566 1.566 0 0 0-.104-.593 1.22 1.22 0 0 0-.752-.722 1.916 1.916 0 0 0-1.205 0 1.295 1.295 0 0 0-.461.28 1.191 1.191 0 0 0-.295.442 1.737 1.737 0 0 0 0 1.185 1.21 1.21 0 0 0 .756.72c.388.126.816.126 1.205 0 .175-.061.332-.156.46-.277.131-.129.23-.28.292-.443.073-.19.108-.391.104-.592ZM18.001 40.675l.057.133c.022-.048.041-.09.063-.133a1.23 1.23 0 0 1 .071-.13l1.393-2.201c.028-.038.052-.062.08-.069a.376.376 0 0 1 .114-.012h.412v3.58h-.488V39.1a.938.938 0 0 1 0-.124L18.3 41.208a.203.203 0 0 1-.082.081.244.244 0 0 1-.12.03h-.079a.243.243 0 0 1-.12-.03.2.2 0 0 1-.081-.081l-1.443-2.246v2.874h-.471v-3.573h.411a.376.376 0 0 1 .115.012c.034.015.06.04.076.069l1.423 2.203a.76.76 0 0 1 .071.128ZM23.244 40.497v1.34H22.7v-3.574h1.216a2.6 2.6 0 0 1 .679.079c.176.043.34.119.48.222a.923.923 0 0 1 .272.35c.065.146.096.302.093.458a.992.992 0 0 1-.395.815c-.14.107-.305.188-.483.237a2.307 2.307 0 0 1-.657.083l-.66-.01Zm0-.384h.66c.143.002.286-.017.423-.054a.923.923 0 0 0 .305-.154.687.687 0 0 0 .25-.538.604.604 0 0 0-.054-.291.69.69 0 0 0-.19-.244 1.172 1.172 0 0 0-.734-.192h-.66v1.473ZM30.573 41.843h-.43a.204.204 0 0 1-.12-.034.224.224 0 0 1-.072-.083l-.37-.864h-1.863l-.384.864a.205.205 0 0 1-.19.116h-.432l1.636-3.58h.567l1.658 3.58Zm-2.7-1.33h1.539l-.65-1.456c-.049-.11-.09-.222-.122-.337l-.063.187c-.019.057-.04.11-.06.152l-.643 1.455ZM32.929 38.28a.23.23 0 0 1 .081.064l2.386 2.698v-2.779h.488v3.58h-.272a.264.264 0 0 1-.112-.022.297.297 0 0 1-.087-.066l-2.383-2.696a.938.938 0 0 1 0 .123V41.842h-.488v-3.579h.289c.033 0 .067.005.098.017ZM39.903 40.419v1.421h-.545V40.42l-1.508-2.156h.488a.196.196 0 0 1 .117.03c.03.024.055.051.074.081l.943 1.391c.038.06.071.114.098.166.028.052.05.102.069.151l.07-.154c.027-.056.058-.11.093-.163l.93-1.4a.379.379 0 0 1 .07-.076.182.182 0 0 1 .118-.035h.493l-1.51 2.165ZM17.731 32.256c.238.026.477.047.72.066 3.679-1.43 6.791-3.77 8.948-6.728 2.156-2.958 3.261-6.403 3.177-9.904l-4.055-3.522c.825 3.727.44 7.58-1.113 11.128-1.553 3.547-4.21 6.65-7.677 8.96Z"/><path fill="#AFB1B8" d="m16.284 32.092.109.02c3.704-2.303 6.527-5.517 8.106-9.228 1.579-3.711 1.84-7.749.75-11.59l-5.775-5.017c2.335 4.124 3.275 8.739 2.71 13.309-.564 4.57-2.61 8.907-5.9 12.506ZM35.868 19.827c-.981 3.846-3.364 7.315-6.795 9.892a21.629 21.629 0 0 1-3.228 2.014c2.794-.714 5.361-1.975 7.505-3.687 2.144-1.712 3.807-3.828 4.86-6.187l-2.342-2.032Z"/><path fill="#AFB1B8" d="m34.949 19.26-3.334-2.897c-.064 3.303-1.145 6.531-3.13 9.349-1.986 2.817-4.804 5.12-8.16 6.672h.016c.748 0 1.495-.04 2.238-.116 3.137-1.113 5.909-2.883 8.067-5.153 2.159-2.27 3.637-4.968 4.303-7.855ZM16.766 4.16 12.788.7C9.232 1.894 6.174 3.993 4.013 6.722 1.853 9.452.691 12.684.68 15.996c.013 3.66 1.431 7.212 4.03 10.093 2.597 2.88 6.227 4.927 10.314 5.814 3.648-3.862 5.784-8.634 6.098-13.623.313-4.99-1.213-9.935-4.356-14.12ZM44.14 18.727c-.014-4.342-2.006-8.503-5.54-11.574-3.535-3.07-8.324-4.801-13.322-4.814a21.18 21.18 0 0 0-6.753 1.092L42.88 24.593a14.352 14.352 0 0 0 1.26-5.866Z"/></svg>